<svg width="48" height="48" viewBox="0 0 48 48" fill="none" xmlns="http://www.w3.org/2000/svg">
<rect width="48" height="48" rx="12" fill="#F5F5F5"/>
<path d="M15.25 17.75C15.25 17.0859 15.7969 16.5 16.5 16.5H31.5C32.1641 16.5 32.75 17.0859 32.75 17.75C32.75 18.4531 32.1641 19 31.5 19H16.5C15.7969 19 15.25 18.4531 15.25 17.75ZM15.25 24C15.25 23.3359 15.7969 22.75 16.5 22.75H31.5C32.1641 22.75 32.75 23.3359 32.75 24C32.75 24.7031 32.1641 25.25 31.5 25.25H16.5C15.7969 25.25 15.25 24.7031 15.25 24ZM31.5 31.5H16.5C15.7969 31.5 15.25 30.9531 15.25 30.25C15.25 29.5859 15.7969 29 16.5 29H31.5C32.1641 29 32.75 29.5859 32.75 30.25C32.75 30.9531 32.1641 31.5 31.5 31.5Z" fill="#3E3232"/>
</svg>
